{
  "asset": {
    "version": "2.0",
    "generator": "CityCut"
  },
  "scene": 0,
  "scenes": [
    {
      "nodes": [
        0
      ]
    }
  ],
  "nodes": [
    {
      "name": "broadleaf-spreading",
      "mesh": 0
    }
  ],
  "meshes": [
    {
      "name": "broadleaf-spreading",
      "primitives": [
        {
          "attributes": {
            "POSITION": 0,
            "NORMAL": 1,
            "COLOR_0": 2
          },
          "indices": 3,
          "mode": 4
        }
      ]
    }
  ],
  "accessors": [
    {
      "bufferView": 0,
      "componentType": 5126,
      "count": 49,
      "type": "VEC3",
      "min": [
        -0.5,
        0,
        -0.5
      ],
      "max": [
        0.5,
        1,
        0.5
      ]
    },
    {
      "bufferView": 1,
      "componentType": 5126,
      "count": 49,
      "type": "VEC3",
      "min": [
        -0.9923233985900879,
        -1,
        -0.9923233985900879
      ],
      "max": [
        0.9923233985900879,
        0.3429671823978424,
        0.9923233985900879
      ]
    },
    {
      "bufferView": 2,
      "componentType": 5126,
      "count": 49,
      "type": "VEC3",
      "min": [
        0.04970656707882881,
        0.06847816705703735,
        0.02955683507025242
      ],
      "max": [
        0.14702726900577545,
        0.2746773064136505,
        0.06847816705703735
      ]
    },
    {
      "bufferView": 3,
      "componentType": 5123,
      "count": 264,
      "type": "SCALAR"
    }
  ],
  "bufferViews": [
    {
      "buffer": 0,
      "byteOffset": 0,
      "byteLength": 588,
      "target": 34962
    },
    {
      "buffer": 0,
      "byteOffset": 588,
      "byteLength": 588,
      "target": 34962
    },
    {
      "buffer": 0,
      "byteOffset": 1176,
      "byteLength": 588,
      "target": 34962
    },
    {
      "buffer": 0,
      "byteOffset": 1764,
      "byteLength": 528,
      "target": 34963
    }
  ],
  "buffers": [
    {
      "byteLength": 2292,
      "uri": "data:application/octet-stream;base64,"
    }
  ]
}
