{
  "asset": {
    "version": "2.0",
    "generator": "CityCut"
  },
  "scene": 0,
  "scenes": [
    {
      "nodes": [
        0
      ]
    }
  ],
  "nodes": [
    {
      "name": "columnar",
      "mesh": 0
    }
  ],
  "meshes": [
    {
      "name": "columnar",
      "primitives": [
        {
          "attributes": {
            "POSITION": 0,
            "NORMAL": 1,
            "COLOR_0": 2
          },
          "indices": 3,
          "mode": 4
        }
      ]
    }
  ],
  "accessors": [
    {
      "bufferView": 0,
      "componentType": 5126,
      "count": 33,
      "type": "VEC3",
      "min": [
        -0.5,
        0,
        -0.5
      ],
      "max": [
        0.5,
        1,
        0.5
      ]
    },
    {
      "bufferView": 1,
      "componentType": 5126,
      "count": 33,
      "type": "VEC3",
      "min": [
        -0.992268979549408,
        -1,
        -0.992268979549408
      ],
      "max": [
        0.992268979549408,
        0.11715994030237198,
        0.992268979549408
      ]
    },
    {
      "bufferView": 2,
      "componentType": 5126,
      "count": 33,
      "type": "VEC3",
      "min": [
        0.10224173218011856,
        0.06847816705703735,
        0.02955683507025242
      ],
      "max": [
        0.14702726900577545,
        0.2746773064136505,
        0.06480326503515244
      ]
    },
    {
      "bufferView": 3,
      "componentType": 5123,
      "count": 168,
      "type": "SCALAR"
    }
  ],
  "bufferViews": [
    {
      "buffer": 0,
      "byteOffset": 0,
      "byteLength": 396,
      "target": 34962
    },
    {
      "buffer": 0,
      "byteOffset": 396,
      "byteLength": 396,
      "target": 34962
    },
    {
      "buffer": 0,
      "byteOffset": 792,
      "byteLength": 396,
      "target": 34962
    },
    {
      "buffer": 0,
      "byteOffset": 1188,
      "byteLength": 336,
      "target": 34963
    }
  ],
  "buffers": [
    {
      "byteLength": 1524,
      "uri": "data:application/octet-stream;base64,"
    }
  ]
}
