{
  "asset": {
    "version": "2.0",
    "generator": "CityCut"
  },
  "scene": 0,
  "scenes": [
    {
      "nodes": [
        0
      ]
    }
  ],
  "nodes": [
    {
      "name": "gum-broad",
      "mesh": 0
    }
  ],
  "meshes": [
    {
      "name": "gum-broad",
      "primitives": [
        {
          "attributes": {
            "POSITION": 0,
            "NORMAL": 1,
            "COLOR_0": 2
          },
          "indices": 3,
          "mode": 4
        }
      ]
    }
  ],
  "accessors": [
    {
      "bufferView": 0,
      "componentType": 5126,
      "count": 41,
      "type": "VEC3",
      "min": [
        -0.5,
        0,
        -0.5
      ],
      "max": [
        0.5,
        1,
        0.5
      ]
    },
    {
      "bufferView": 1,
      "componentType": 5126,
      "count": 41,
      "type": "VEC3",
      "min": [
        -0.9928739070892334,
        -1,
        -0.9928739070892334
      ],
      "max": [
        0.9928739070892334,
        0.019857484847307205,
        0.9928739070892334
      ]
    },
    {
      "bufferView": 2,
      "componentType": 5126,
      "count": 41,
      "type": "VEC3",
      "min": [
        0.1384316086769104,
        0.06847816705703735,
        0.02955683507025242
      ],
      "max": [
        0.14702726900577545,
        0.23839756846427917,
        0.10702310502529144
      ]
    },
    {
      "bufferView": 3,
      "componentType": 5123,
      "count": 216,
      "type": "SCALAR"
    }
  ],
  "bufferViews": [
    {
      "buffer": 0,
      "byteOffset": 0,
      "byteLength": 492,
      "target": 34962
    },
    {
      "buffer": 0,
      "byteOffset": 492,
      "byteLength": 492,
      "target": 34962
    },
    {
      "buffer": 0,
      "byteOffset": 984,
      "byteLength": 492,
      "target": 34962
    },
    {
      "buffer": 0,
      "byteOffset": 1476,
      "byteLength": 432,
      "target": 34963
    }
  ],
  "buffers": [
    {
      "byteLength": 1908,
      "uri": "data:application/octet-stream;base64,"
    }
  ]
}
