{
  "asset": {
    "version": "2.0",
    "generator": "CityCut"
  },
  "scene": 0,
  "scenes": [
    {
      "nodes": [
        0
      ]
    }
  ],
  "nodes": [
    {
      "name": "leafless",
      "mesh": 0
    }
  ],
  "meshes": [
    {
      "name": "leafless",
      "primitives": [
        {
          "attributes": {
            "POSITION": 0,
            "NORMAL": 1,
            "COLOR_0": 2
          },
          "indices": 3,
          "mode": 4
        }
      ]
    }
  ],
  "accessors": [
    {
      "bufferView": 0,
      "componentType": 5126,
      "count": 94,
      "type": "VEC3",
      "min": [
        -0.34760400652885437,
        0,
        -0.4773451089859009
      ],
      "max": [
        0.46112096309661865,
        1,
        0.2691992521286011
      ]
    },
    {
      "bufferView": 1,
      "componentType": 5126,
      "count": 94,
      "type": "VEC3",
      "min": [
        -0.9929478168487549,
        -1,
        -0.9929478168487549
      ],
      "max": [
        0.9929478168487549,
        0.9277969002723694,
        0.9929478168487549
      ]
    },
    {
      "bufferView": 2,
      "componentType": 5126,
      "count": 94,
      "type": "VEC3",
      "min": [
        0.14702726900577545,
        0.06847816705703735,
        0.02955683507025242
      ],
      "max": [
        0.1946178376674652,
        0.12213877588510513,
        0.06480326503515244
      ]
    },
    {
      "bufferView": 3,
      "componentType": 5123,
      "count": 372,
      "type": "SCALAR"
    }
  ],
  "bufferViews": [
    {
      "buffer": 0,
      "byteOffset": 0,
      "byteLength": 1128,
      "target": 34962
    },
    {
      "buffer": 0,
      "byteOffset": 1128,
      "byteLength": 1128,
      "target": 34962
    },
    {
      "buffer": 0,
      "byteOffset": 2256,
      "byteLength": 1128,
      "target": 34962
    },
    {
      "buffer": 0,
      "byteOffset": 3384,
      "byteLength": 744,
      "target": 34963
    }
  ],
  "buffers": [
    {
      "byteLength": 4128,
      "uri": "data:application/octet-stream;base64,"
    }
  ]
}
