{
  "asset": {
    "version": "2.0",
    "generator": "CityCut"
  },
  "scene": 0,
  "scenes": [
    {
      "nodes": [
        0
      ]
    }
  ],
  "nodes": [
    {
      "name": "mallee",
      "mesh": 0
    }
  ],
  "meshes": [
    {
      "name": "mallee",
      "primitives": [
        {
          "attributes": {
            "POSITION": 0,
            "NORMAL": 1,
            "COLOR_0": 2
          },
          "indices": 3,
          "mode": 4
        }
      ]
    }
  ],
  "accessors": [
    {
      "bufferView": 0,
      "componentType": 5126,
      "count": 72,
      "type": "VEC3",
      "min": [
        -0.5,
        0,
        -0.5
      ],
      "max": [
        0.5,
        1,
        0.5
      ]
    },
    {
      "bufferView": 1,
      "componentType": 5126,
      "count": 72,
      "type": "VEC3",
      "min": [
        -0.944891631603241,
        -1,
        -0.9826171398162842
      ],
      "max": [
        0.9444376230239868,
        0.9845711588859558,
        0.9826171398162842
      ]
    },
    {
      "bufferView": 2,
      "componentType": 5126,
      "count": 72,
      "type": "VEC3",
      "min": [
        0.14702726900577545,
        0.06847816705703735,
        0.02955683507025242
      ],
      "max": [
        0.21223075687885284,
        0.28744083642959595,
        0.1384316086769104
      ]
    },
    {
      "bufferView": 3,
      "componentType": 5123,
      "count": 330,
      "type": "SCALAR"
    }
  ],
  "bufferViews": [
    {
      "buffer": 0,
      "byteOffset": 0,
      "byteLength": 864,
      "target": 34962
    },
    {
      "buffer": 0,
      "byteOffset": 864,
      "byteLength": 864,
      "target": 34962
    },
    {
      "buffer": 0,
      "byteOffset": 1728,
      "byteLength": 864,
      "target": 34962
    },
    {
      "buffer": 0,
      "byteOffset": 2592,
      "byteLength": 660,
      "target": 34963
    }
  ],
  "buffers": [
    {
      "byteLength": 3252,
      "uri": "data:application/octet-stream;base64,"
    }
  ]
}
