{
  "asset": {
    "version": "2.0",
    "generator": "CityCut"
  },
  "scene": 0,
  "scenes": [
    {
      "nodes": [
        0
      ]
    }
  ],
  "nodes": [
    {
      "name": "open-canopy",
      "mesh": 0
    }
  ],
  "meshes": [
    {
      "name": "open-canopy",
      "primitives": [
        {
          "attributes": {
            "POSITION": 0,
            "NORMAL": 1,
            "COLOR_0": 2
          },
          "indices": 3,
          "mode": 4
        }
      ]
    }
  ],
  "accessors": [
    {
      "bufferView": 0,
      "componentType": 5126,
      "count": 57,
      "type": "VEC3",
      "min": [
        -0.5,
        0,
        -0.5
      ],
      "max": [
        0.5,
        1,
        0.5
      ]
    },
    {
      "bufferView": 1,
      "componentType": 5126,
      "count": 57,
      "type": "VEC3",
      "min": [
        -0.9981889128684998,
        -1,
        -0.9981889128684998
      ],
      "max": [
        0.9981889128684998,
        0.9684743881225586,
        0.9981889128684998
      ]
    },
    {
      "bufferView": 2,
      "componentType": 5126,
      "count": 57,
      "type": "VEC3",
      "min": [
        0.14702726900577545,
        0.06847816705703735,
        0.02955683507025242
      ],
      "max": [
        0.2541520893573761,
        0.4019777774810791,
        0.12213877588510513
      ]
    },
    {
      "bufferView": 3,
      "componentType": 5123,
      "count": 312,
      "type": "SCALAR"
    }
  ],
  "bufferViews": [
    {
      "buffer": 0,
      "byteOffset": 0,
      "byteLength": 684,
      "target": 34962
    },
    {
      "buffer": 0,
      "byteOffset": 684,
      "byteLength": 684,
      "target": 34962
    },
    {
      "buffer": 0,
      "byteOffset": 1368,
      "byteLength": 684,
      "target": 34962
    },
    {
      "buffer": 0,
      "byteOffset": 2052,
      "byteLength": 624,
      "target": 34963
    }
  ],
  "buffers": [
    {
      "byteLength": 2676,
      "uri": "data:application/octet-stream;base64,"
    }
  ]
}
