{
  "asset": {
    "version": "2.0",
    "generator": "CityCut"
  },
  "scene": 0,
  "scenes": [
    {
      "nodes": [
        0
      ]
    }
  ],
  "nodes": [
    {
      "name": "palm-date",
      "mesh": 0
    }
  ],
  "meshes": [
    {
      "name": "palm-date",
      "primitives": [
        {
          "attributes": {
            "POSITION": 0,
            "NORMAL": 1,
            "COLOR_0": 2
          },
          "indices": 3,
          "mode": 4
        }
      ]
    }
  ],
  "accessors": [
    {
      "bufferView": 0,
      "componentType": 5126,
      "count": 65,
      "type": "VEC3",
      "min": [
        -0.5,
        0,
        -0.4755282700061798
      ],
      "max": [
        0.5,
        1,
        0.4755282700061798
      ]
    },
    {
      "bufferView": 1,
      "componentType": 5126,
      "count": 65,
      "type": "VEC3",
      "min": [
        -0.9929416179656982,
        -0.19486001133918762,
        -0.9929416179656982
      ],
      "max": [
        0.9929416179656982,
        1,
        0.9929416179656982
      ]
    },
    {
      "bufferView": 2,
      "componentType": 5126,
      "count": 65,
      "type": "VEC3",
      "min": [
        0.028426039963960648,
        0.06847816705703735,
        0.02955683507025242
      ],
      "max": [
        0.14702726900577545,
        0.1946178376674652,
        0.039546236395835876
      ]
    },
    {
      "bufferView": 3,
      "componentType": 5123,
      "count": 186,
      "type": "SCALAR"
    }
  ],
  "bufferViews": [
    {
      "buffer": 0,
      "byteOffset": 0,
      "byteLength": 780,
      "target": 34962
    },
    {
      "buffer": 0,
      "byteOffset": 780,
      "byteLength": 780,
      "target": 34962
    },
    {
      "buffer": 0,
      "byteOffset": 1560,
      "byteLength": 780,
      "target": 34962
    },
    {
      "buffer": 0,
      "byteOffset": 2340,
      "byteLength": 372,
      "target": 34963
    }
  ],
  "buffers": [
    {
      "byteLength": 2712,
      "uri": "data:application/octet-stream;base64,"
    }
  ]
}
