{
  "asset": {
    "version": "2.0",
    "generator": "CityCut"
  },
  "scene": 0,
  "scenes": [
    {
      "nodes": [
        0
      ]
    }
  ],
  "nodes": [
    {
      "name": "pine-tiered",
      "mesh": 0
    }
  ],
  "meshes": [
    {
      "name": "pine-tiered",
      "primitives": [
        {
          "attributes": {
            "POSITION": 0,
            "NORMAL": 1,
            "COLOR_0": 2
          },
          "indices": 3,
          "mode": 4
        }
      ]
    }
  ],
  "accessors": [
    {
      "bufferView": 0,
      "componentType": 5126,
      "count": 52,
      "type": "VEC3",
      "min": [
        -0.5,
        0,
        -0.5
      ],
      "max": [
        0.5,
        1,
        0.5
      ]
    },
    {
      "bufferView": 1,
      "componentType": 5126,
      "count": 52,
      "type": "VEC3",
      "min": [
        -0.9920952320098877,
        -0.0442899614572525,
        -0.9920952320098877
      ],
      "max": [
        0.9920952320098877,
        1,
        0.9920952320098877
      ]
    },
    {
      "bufferView": 2,
      "componentType": 5126,
      "count": 52,
      "type": "VEC3",
      "min": [
        0.023153366521000862,
        0.06847816705703735,
        0.02955683507025242
      ],
      "max": [
        0.14702726900577545,
        0.12213877588510513,
        0.05126945674419403
      ]
    },
    {
      "bufferView": 3,
      "componentType": 5123,
      "count": 144,
      "type": "SCALAR"
    }
  ],
  "bufferViews": [
    {
      "buffer": 0,
      "byteOffset": 0,
      "byteLength": 624,
      "target": 34962
    },
    {
      "buffer": 0,
      "byteOffset": 624,
      "byteLength": 624,
      "target": 34962
    },
    {
      "buffer": 0,
      "byteOffset": 1248,
      "byteLength": 624,
      "target": 34962
    },
    {
      "buffer": 0,
      "byteOffset": 1872,
      "byteLength": 288,
      "target": 34963
    }
  ],
  "buffers": [
    {
      "byteLength": 2160,
      "uri": "data:application/octet-stream;base64,"
    }
  ]
}
