{
  "asset": {
    "version": "2.0",
    "generator": "CityCut"
  },
  "scene": 0,
  "scenes": [
    {
      "nodes": [
        0
      ]
    }
  ],
  "nodes": [
    {
      "name": "sheoak",
      "mesh": 0
    }
  ],
  "meshes": [
    {
      "name": "sheoak",
      "primitives": [
        {
          "attributes": {
            "POSITION": 0,
            "NORMAL": 1,
            "COLOR_0": 2
          },
          "indices": 3,
          "mode": 4
        }
      ]
    }
  ],
  "accessors": [
    {
      "bufferView": 0,
      "componentType": 5126,
      "count": 65,
      "type": "VEC3",
      "min": [
        -0.5,
        0,
        -0.5
      ],
      "max": [
        0.5,
        1,
        0.5
      ]
    },
    {
      "bufferView": 1,
      "componentType": 5126,
      "count": 65,
      "type": "VEC3",
      "min": [
        -0.9929502010345459,
        -0.9889761209487915,
        -0.9929502010345459
      ],
      "max": [
        0.9929502010345459,
        1,
        0.9929502010345459
      ]
    },
    {
      "bufferView": 2,
      "componentType": 5126,
      "count": 65,
      "type": "VEC3",
      "min": [
        0.14702726900577545,
        0.06847816705703735,
        0.02955683507025242
      ],
      "max": [
        0.15292614698410034,
        0.2581828534603119,
        0.12213877588510513
      ]
    },
    {
      "bufferView": 3,
      "componentType": 5123,
      "count": 312,
      "type": "SCALAR"
    }
  ],
  "bufferViews": [
    {
      "buffer": 0,
      "byteOffset": 0,
      "byteLength": 780,
      "target": 34962
    },
    {
      "buffer": 0,
      "byteOffset": 780,
      "byteLength": 780,
      "target": 34962
    },
    {
      "buffer": 0,
      "byteOffset": 1560,
      "byteLength": 780,
      "target": 34962
    },
    {
      "buffer": 0,
      "byteOffset": 2340,
      "byteLength": 624,
      "target": 34963
    }
  ],
  "buffers": [
    {
      "byteLength": 2964,
      "uri": "data:application/octet-stream;base64,"
    }
  ]
}
