{
  "asset": {
    "version": "2.0",
    "generator": "CityCut"
  },
  "scene": 0,
  "scenes": [
    {
      "nodes": [
        0
      ]
    }
  ],
  "nodes": [
    {
      "name": "shrub",
      "mesh": 0
    }
  ],
  "meshes": [
    {
      "name": "shrub",
      "primitives": [
        {
          "attributes": {
            "POSITION": 0,
            "NORMAL": 1,
            "COLOR_0": 2
          },
          "indices": 3,
          "mode": 4
        }
      ]
    }
  ],
  "accessors": [
    {
      "bufferView": 0,
      "componentType": 5126,
      "count": 33,
      "type": "VEC3",
      "min": [
        -0.5,
        0,
        -0.5
      ],
      "max": [
        0.5,
        1,
        0.5
      ]
    },
    {
      "bufferView": 1,
      "componentType": 5126,
      "count": 33,
      "type": "VEC3",
      "min": [
        -0.9206377267837524,
        -1,
        -0.9206377267837524
      ],
      "max": [
        0.9206377267837524,
        0.5992905497550964,
        0.9206377267837524
      ]
    },
    {
      "bufferView": 2,
      "componentType": 5126,
      "count": 33,
      "type": "VEC3",
      "min": [
        0.1441284716129303,
        0.32314321398735046,
        0.06480326503515244
      ],
      "max": [
        0.1441284716129303,
        0.32314321398735046,
        0.06480326503515244
      ]
    },
    {
      "bufferView": 3,
      "componentType": 5123,
      "count": 168,
      "type": "SCALAR"
    }
  ],
  "bufferViews": [
    {
      "buffer": 0,
      "byteOffset": 0,
      "byteLength": 396,
      "target": 34962
    },
    {
      "buffer": 0,
      "byteOffset": 396,
      "byteLength": 396,
      "target": 34962
    },
    {
      "buffer": 0,
      "byteOffset": 792,
      "byteLength": 396,
      "target": 34962
    },
    {
      "buffer": 0,
      "byteOffset": 1188,
      "byteLength": 336,
      "target": 34963
    }
  ],
  "buffers": [
    {
      "byteLength": 1524,
      "uri": "data:application/octet-stream;base64,"
    }
  ]
}
